<!-- Generated by IcoMoon.io -->
<svg version="1.1" xmlns="http://www.w3.org/2000/svg" width="28" height="32" viewBox="0 0 28 32">
<title>apple-icon</title>
<path fill="#fff" d="M9.411 31.48c-4.962-0.026-9.067-9.379-9.067-14.143 0-7.781 6.321-9.484 8.758-9.484 1.098 0 2.27 0.398 3.304 0.75 0.723 0.246 1.471 0.499 1.887 0.499 0.249 0 0.836-0.216 1.354-0.405 1.105-0.406 2.479-0.911 4.080-0.911 0.003 0 0.007 0 0.009 0 1.195 0 4.819 0.242 6.998 3.263l0.51 0.708-0.735 0.512c-1.049 0.731-2.964 2.065-2.964 4.706 0 3.128 2.168 4.332 3.21 4.91 0.46 0.255 0.936 0.519 0.936 1.095 0 0.376-3.251 8.452-7.972 8.452-1.155 0-1.972-0.321-2.692-0.603-0.729-0.286-1.357-0.533-2.396-0.533-0.527 0-1.192 0.23-1.897 0.474-0.963 0.332-2.054 0.709-3.291 0.709h-0.032z"></path>
<path fill="#fff" d="M20.226 0.695c0.123 4.093-3.047 6.933-6.214 6.755-0.522-3.267 3.166-6.755 6.214-6.755z"></path>
</svg>
