<!-- Generated by IcoMoon.io -->
<svg version="1.1" xmlns="http://www.w3.org/2000/svg" width="35" height="32" viewBox="0 0 35 32">
<title>instagram-icon</title>
<path fill="#fff" d="M29.954 0.102h-24.359c-2.782 0-5.047 2.091-5.047 4.66v22.492c0 2.57 2.264 4.66 5.047 4.66h24.359c2.783 0 5.047-2.090 5.047-4.66v-22.492c0-2.569-2.264-4.66-5.047-4.66zM32.982 27.253c0 1.542-1.359 2.796-3.028 2.796h-24.359c-1.669 0-3.028-1.254-3.028-2.796v-22.492c0-1.541 1.359-2.796 3.028-2.796h24.359c1.669 0 3.028 1.254 3.028 2.796v22.492z"></path>
<path fill="#fff" d="M28.877 3.892c-1.113 0-2.019 0.836-2.019 1.864s0.906 1.864 2.019 1.864c1.113 0 2.019-0.836 2.019-1.864s-0.906-1.864-2.019-1.864z"></path>
<path fill="#fff" d="M17.774 7.62c-5.009 0-9.084 3.763-9.084 8.388s4.075 8.388 9.084 8.388c5.009 0 9.084-3.763 9.084-8.388s-4.075-8.388-9.084-8.388zM17.774 22.531c-3.896 0-7.065-2.926-7.065-6.524s3.169-6.524 7.065-6.524c3.896 0 7.066 2.926 7.066 6.524s-3.169 6.524-7.066 6.524z"></path>
</svg>
