<!-- Generated by IcoMoon.io -->
<svg version="1.1" xmlns="http://www.w3.org/2000/svg" width="32" height="32" viewBox="0 0 32 32">
<title>play-icon</title>
<path fill="#fff" d="M16.145 0.159c-8.699 0-15.775 7.077-15.775 15.775s7.076 15.775 15.775 15.775 15.775-7.077 15.775-15.775c0-8.698-7.076-15.775-15.775-15.775zM16.145 30.394c-7.973 0-14.46-6.487-14.46-14.46s6.487-14.46 14.46-14.46c7.973 0 14.46 6.487 14.46 14.46s-6.487 14.46-14.46 14.46z"></path>
<path fill="#fff" d="M22.416 15.381l-9.202-5.916c-0.202-0.132-0.462-0.139-0.67-0.024-0.212 0.116-0.343 0.336-0.343 0.577v11.831c0 0.241 0.131 0.462 0.343 0.577 0.098 0.053 0.207 0.080 0.315 0.080 0.123 0 0.248-0.035 0.356-0.105l9.202-5.916c0.187-0.121 0.302-0.329 0.302-0.553s-0.114-0.432-0.302-0.553zM13.516 20.645v-9.423l7.329 4.711-7.329 4.711z"></path>
</svg>
