<!-- Generated by IcoMoon.io -->
<svg version="1.1" xmlns="http://www.w3.org/2000/svg" width="34" height="32" viewBox="0 0 34 32">
<title>playmarket-icon</title>
<path fill="#2196f3" d="M19.321 15.961l-16.636 14.791c-0.779-0.492-1.242-1.309-1.233-2.18v-25.221c-0.008-0.871 0.454-1.689 1.233-2.18l16.636 14.791z"></path>
<path fill="#4caf50" d="M25.142 10.794l-5.821 5.166-16.636-14.791c0.063-0.045 0.128-0.087 0.196-0.125 0.879-0.492 1.977-0.508 2.873-0.042l19.388 9.791z"></path>
<path fill="#f0bb1f" d="M32.197 15.961c0.011 0.983-0.568 1.892-1.504 2.361l-5.55 2.805-5.821-5.166 5.821-5.166 5.55 2.805c0.936 0.469 1.515 1.378 1.504 2.361z"></path>
<path fill="#f15a2b" d="M25.142 21.127l-19.388 9.791c-0.897 0.459-1.992 0.443-2.873-0.042-0.068-0.038-0.133-0.080-0.196-0.125l16.636-14.791 5.821 5.166z"></path>
</svg>
