<svg aria-hidden="true" style="position: absolute; width: 0; height: 0; overflow: hidden;" version="1.1" xmlns="http://www.w3.org/2000/svg" xmlns:xlink="http://www.w3.org/1999/xlink">
<defs>
<symbol id="icon-apple" viewBox="0 0 28 32">
<path fill="#fff" style="fill: var(--color1, #fff)" d="M9.411 31.48c-4.962-0.026-9.067-9.379-9.067-14.143 0-7.781 6.321-9.484 8.758-9.484 1.098 0 2.27 0.398 3.304 0.75 0.723 0.246 1.471 0.499 1.887 0.499 0.249 0 0.836-0.216 1.354-0.405 1.105-0.406 2.479-0.911 4.080-0.911 0.003 0 0.007 0 0.009 0 1.195 0 4.819 0.242 6.998 3.263l0.51 0.708-0.735 0.512c-1.049 0.731-2.964 2.065-2.964 4.706 0 3.128 2.168 4.332 3.21 4.91 0.46 0.255 0.936 0.519 0.936 1.095 0 0.376-3.251 8.452-7.972 8.452-1.155 0-1.972-0.321-2.692-0.603-0.729-0.286-1.357-0.533-2.396-0.533-0.527 0-1.192 0.23-1.897 0.474-0.963 0.332-2.054 0.709-3.291 0.709h-0.032z"></path>
<path fill="#fff" style="fill: var(--color1, #fff)" d="M20.226 0.695c0.123 4.093-3.047 6.933-6.214 6.755-0.522-3.267 3.166-6.755 6.214-6.755z"></path>
</symbol>
<symbol id="icon-facebook" viewBox="0 0 17 32">
<path d="M14.91 6.409c-0.827-0.242-1.778-0.403-2.646-0.403-1.075 0-3.391 0.684-3.391 2.013v3.181h5.5v5.355h-5.5v14.776h-5.541v-14.776h-2.729v-5.355h2.729v-2.698c0-4.067 1.902-7.449 6.492-7.449 1.571 0 4.383 0.081 5.913 0.604l-0.827 4.751z"></path>
</symbol>
<symbol id="icon-instagram" viewBox="0 0 35 32">
<path fill="#fff" style="fill: var(--color1, #fff)" d="M29.954 0.102h-24.359c-2.782 0-5.047 2.091-5.047 4.66v22.492c0 2.57 2.264 4.66 5.047 4.66h24.359c2.783 0 5.047-2.090 5.047-4.66v-22.492c0-2.569-2.264-4.66-5.047-4.66zM32.982 27.253c0 1.542-1.359 2.796-3.028 2.796h-24.359c-1.669 0-3.028-1.254-3.028-2.796v-22.492c0-1.541 1.359-2.796 3.028-2.796h24.359c1.669 0 3.028 1.254 3.028 2.796v22.492z"></path>
<path fill="#fff" style="fill: var(--color1, #fff)" d="M28.877 3.892c-1.113 0-2.019 0.836-2.019 1.864s0.906 1.864 2.019 1.864c1.113 0 2.019-0.836 2.019-1.864s-0.906-1.864-2.019-1.864z"></path>
<path fill="#fff" style="fill: var(--color1, #fff)" d="M17.774 7.62c-5.009 0-9.084 3.763-9.084 8.388s4.075 8.388 9.084 8.388c5.009 0 9.084-3.763 9.084-8.388s-4.075-8.388-9.084-8.388zM17.774 22.531c-3.896 0-7.065-2.926-7.065-6.524s3.169-6.524 7.065-6.524c3.896 0 7.066 2.926 7.066 6.524s-3.169 6.524-7.066 6.524z"></path>
</symbol>
<symbol id="icon-logo" viewBox="0 0 108 32">
<path fill="#01996d" style="fill: var(--color2, #01996d)" d="M13.533 2.347h5.16l12.32 28.32h-7.040l-2.44-6h-11l-2.36 6h-6.88l12.24-28.32zM15.933 10.587l-3.44 8.8h6.92l-3.48-8.8z"></path>
<path fill="#01996d" style="fill: var(--color2, #01996d)" d="M33.182 0.427h6v30.24h-6v-30.24z"></path>
<path fill="#01996d" style="fill: var(--color2, #01996d)" d="M43.572 11.227h6v19.44h-6v-19.44zM43.092 5.107c0-0.96 0.333-1.773 1-2.44 0.693-0.693 1.52-1.040 2.48-1.040s1.773 0.347 2.44 1.040c0.693 0.667 1.040 1.48 1.040 2.44s-0.347 1.787-1.040 2.48c-0.667 0.667-1.48 1-2.44 1s-1.787-0.333-2.48-1c-0.667-0.693-1-1.52-1-2.48z"></path>
<path fill="#01996d" style="fill: var(--color2, #01996d)" d="M51.843 11.227h6.48l4.92 13.2h0.080l4.56-13.2h6.040l-7.68 19.44h-6.36l-8.040-19.44z"></path>
<path fill="#01996d" style="fill: var(--color2, #01996d)" d="M76.19 11.227h6v19.44h-6v-19.44zM75.71 5.107c0-0.96 0.333-1.773 1-2.44 0.693-0.693 1.52-1.040 2.48-1.040s1.773 0.347 2.44 1.040c0.693 0.667 1.040 1.48 1.040 2.44s-0.347 1.787-1.040 2.48c-0.667 0.667-1.48 1-2.44 1s-1.787-0.333-2.48-1c-0.667-0.693-1-1.52-1-2.48z"></path>
<path fill="#01996d" style="fill: var(--color2, #01996d)" d="M85.78 20.947c0-1.547 0.28-2.947 0.84-4.2s1.32-2.32 2.28-3.2c0.987-0.907 2.133-1.6 3.44-2.080 1.333-0.48 2.747-0.72 4.24-0.72s2.893 0.24 4.2 0.72c1.333 0.48 2.48 1.173 3.44 2.080 0.987 0.88 1.76 1.947 2.32 3.2s0.84 2.653 0.84 4.2c0 1.547-0.28 2.947-0.84 4.2s-1.333 2.333-2.32 3.24c-0.96 0.88-2.107 1.56-3.44 2.040-1.307 0.48-2.707 0.72-4.2 0.72s-2.907-0.24-4.24-0.72c-1.307-0.48-2.453-1.16-3.44-2.040-0.96-0.907-1.72-1.987-2.28-3.24s-0.84-2.653-0.84-4.2zM91.78 20.947c0 1.467 0.413 2.653 1.24 3.56 0.853 0.907 2.040 1.36 3.56 1.36s2.693-0.453 3.52-1.36c0.853-0.907 1.28-2.093 1.28-3.56s-0.427-2.653-1.28-3.56c-0.827-0.907-2-1.36-3.52-1.36s-2.707 0.453-3.56 1.36c-0.827 0.907-1.24 2.093-1.24 3.56z"></path>
</symbol>
<symbol id="icon-logo-withe" viewBox="0 0 108 32">
<path fill="#fff" style="fill: var(--color1, #fff)" d="M13.2 2.68h5.16l12.32 28.32h-7.040l-2.44-6h-11l-2.36 6h-6.88l12.24-28.32zM15.6 10.92l-3.44 8.8h6.92l-3.48-8.8zM32.848 0.76h6v30.24h-6v-30.24zM43.239 11.56h6v19.44h-6v-19.44zM42.759 5.44c0-0.96 0.333-1.773 1-2.44 0.693-0.693 1.52-1.040 2.48-1.040s1.773 0.347 2.44 1.040c0.693 0.667 1.040 1.48 1.040 2.44s-0.347 1.787-1.040 2.48c-0.667 0.667-1.48 1-2.44 1s-1.787-0.333-2.48-1c-0.667-0.693-1-1.52-1-2.48zM51.51 11.56h6.48l4.92 13.2h0.080l4.56-13.2h6.040l-7.68 19.44h-6.36l-8.040-19.44zM75.856 11.56h6v19.44h-6v-19.44zM75.376 5.44c0-0.96 0.333-1.773 1-2.44 0.693-0.693 1.52-1.040 2.48-1.040s1.773 0.347 2.44 1.040c0.693 0.667 1.040 1.48 1.040 2.44s-0.347 1.787-1.040 2.48c-0.667 0.667-1.48 1-2.44 1s-1.787-0.333-2.48-1c-0.667-0.693-1-1.52-1-2.48zM85.447 21.28c0-1.547 0.28-2.947 0.84-4.2s1.32-2.32 2.28-3.2c0.987-0.907 2.133-1.6 3.44-2.080 1.333-0.48 2.747-0.72 4.24-0.72s2.893 0.24 4.2 0.72c1.333 0.48 2.48 1.173 3.44 2.080 0.987 0.88 1.76 1.947 2.32 3.2s0.84 2.653 0.84 4.2c0 1.547-0.28 2.947-0.84 4.2s-1.333 2.333-2.32 3.24c-0.96 0.88-2.107 1.56-3.44 2.040-1.307 0.48-2.707 0.72-4.2 0.72s-2.907-0.24-4.24-0.72c-1.307-0.48-2.453-1.16-3.44-2.040-0.96-0.907-1.72-1.987-2.28-3.24s-0.84-2.653-0.84-4.2zM91.447 21.28c0 1.467 0.413 2.653 1.24 3.56 0.853 0.907 2.040 1.36 3.56 1.36s2.693-0.453 3.52-1.36c0.853-0.907 1.28-2.093 1.28-3.56s-0.427-2.653-1.28-3.56c-0.827-0.907-2-1.36-3.52-1.36s-2.707 0.453-3.56 1.36c-0.827 0.907-1.24 2.093-1.24 3.56z"></path>
</symbol>
<symbol id="icon-play" viewBox="0 0 32 32">
<path fill="#fff" style="fill: var(--color1, #fff)" d="M16.145 0.159c-8.699 0-15.775 7.077-15.775 15.775s7.076 15.775 15.775 15.775 15.775-7.077 15.775-15.775c0-8.698-7.076-15.775-15.775-15.775zM16.145 30.394c-7.973 0-14.46-6.487-14.46-14.46s6.487-14.46 14.46-14.46c7.973 0 14.46 6.487 14.46 14.46s-6.487 14.46-14.46 14.46z"></path>
<path fill="#fff" style="fill: var(--color1, #fff)" d="M22.416 15.381l-9.202-5.916c-0.202-0.132-0.462-0.139-0.67-0.024-0.212 0.116-0.343 0.336-0.343 0.577v11.831c0 0.241 0.131 0.462 0.343 0.577 0.098 0.053 0.207 0.080 0.315 0.080 0.123 0 0.248-0.035 0.356-0.105l9.202-5.916c0.187-0.121 0.302-0.329 0.302-0.553s-0.114-0.432-0.302-0.553zM13.516 20.645v-9.423l7.329 4.711-7.329 4.711z"></path>
</symbol>
<symbol id="icon-playmarket" viewBox="0 0 34 32">
<path fill="#2196f3" style="fill: var(--color3, #2196f3)" d="M19.321 15.961l-16.636 14.791c-0.779-0.492-1.242-1.309-1.233-2.18v-25.221c-0.008-0.871 0.454-1.689 1.233-2.18l16.636 14.791z"></path>
<path fill="#4caf50" style="fill: var(--color4, #4caf50)" d="M25.142 10.794l-5.821 5.166-16.636-14.791c0.063-0.045 0.128-0.087 0.196-0.125 0.879-0.492 1.977-0.508 2.873-0.042l19.388 9.791z"></path>
<path fill="#f0bb1f" style="fill: var(--color5, #f0bb1f)" d="M32.197 15.961c0.011 0.983-0.568 1.892-1.504 2.361l-5.55 2.805-5.821-5.166 5.821-5.166 5.55 2.805c0.936 0.469 1.515 1.378 1.504 2.361z"></path>
<path fill="#f15a2b" style="fill: var(--color6, #f15a2b)" d="M25.142 21.127l-19.388 9.791c-0.897 0.459-1.992 0.443-2.873-0.042-0.068-0.038-0.133-0.080-0.196-0.125l16.636-14.791 5.821 5.166z"></path>
</symbol>
<symbol id="icon-twitter" viewBox="0 0 42 32">
<path d="M40.696 4.544c-1.478 0.599-3.054 0.996-4.696 1.188 1.689-0.931 2.979-2.395 3.585-4.159-1.575 0.867-3.314 1.48-5.168 1.821-1.496-1.47-3.627-2.381-5.953-2.381-4.512 0-8.144 3.381-8.144 7.527 0 0.596 0.055 1.17 0.189 1.716-6.775-0.305-12.771-3.303-16.798-7.871-0.703 1.126-1.116 2.416-1.116 3.804 0 2.606 1.453 4.916 3.62 6.254-1.309-0.023-2.594-0.374-3.682-0.927 0 0.023 0 0.053 0 0.083 0 3.657 2.825 6.694 6.529 7.394-0.663 0.168-1.386 0.248-2.137 0.248-0.522 0-1.048-0.028-1.543-0.128 1.056 2.98 4.052 5.171 7.615 5.242-2.773 2.003-6.293 3.209-10.105 3.209-0.668 0-1.309-0.028-1.95-0.103 3.61 2.15 7.888 3.377 12.502 3.377 14.997 0 23.196-11.47 23.196-21.413 0-0.333-0.012-0.654-0.030-0.973 1.617-1.060 2.977-2.384 4.085-3.907z"></path>
</symbol>
</defs>
</svg>
