<!-- Generated by IcoMoon.io -->
<svg version="1.1" xmlns="http://www.w3.org/2000/svg" width="42" height="32" viewBox="0 0 42 32">
<title>twitter-icon</title>
<path d="M40.696 4.544c-1.478 0.599-3.054 0.996-4.696 1.188 1.689-0.931 2.979-2.395 3.585-4.159-1.575 0.867-3.314 1.48-5.168 1.821-1.496-1.47-3.627-2.381-5.953-2.381-4.512 0-8.144 3.381-8.144 7.527 0 0.596 0.055 1.17 0.189 1.716-6.775-0.305-12.771-3.303-16.798-7.871-0.703 1.126-1.116 2.416-1.116 3.804 0 2.606 1.453 4.916 3.62 6.254-1.309-0.023-2.594-0.374-3.682-0.927 0 0.023 0 0.053 0 0.083 0 3.657 2.825 6.694 6.529 7.394-0.663 0.168-1.386 0.248-2.137 0.248-0.522 0-1.048-0.028-1.543-0.128 1.056 2.98 4.052 5.171 7.615 5.242-2.773 2.003-6.293 3.209-10.105 3.209-0.668 0-1.309-0.028-1.95-0.103 3.61 2.15 7.888 3.377 12.502 3.377 14.997 0 23.196-11.47 23.196-21.413 0-0.333-0.012-0.654-0.030-0.973 1.617-1.060 2.977-2.384 4.085-3.907z"></path>
</svg>
